<svg xmlns="http://www.w3.org/2000/svg" width="17.327" height="16.999" viewBox="0 0 17.327 16.999"><g transform="translate(0.327)"><path d="M-346.016,185.606c.68.007,1.425.01,2.322.01l1.578,0,1.368,0c0,2.922,0,5.83,0,8.655l-2.631,0-2.634,0c0-1,0-2.017,0-3q0-.665,0-1.33c0-.43,0-.867,0-1.29,0-1,0-2.022-.006-3.039m-.229-1.2a.926.926,0,0,0-.968.989c.018,1.512.006,3.025.006,4.537q0,2.3,0,4.6a.854.854,0,0,0,.912.928q1.458,0,2.916,0t2.915,0a.84.84,0,0,0,.911-.9q.006-4.617,0-9.234a.841.841,0,0,0-.927-.905h-.062c-1.05,0-2.1,0-3.152,0q-1.269,0-2.538-.012Z" transform="translate(356.548 -178.465)" fill="#4e4e4e"/><path d="M-343.238,36.335l2.629,0c0,.6,0,1.224,0,1.864h-5.267v-.22c0-.539,0-1.094,0-1.644l2.638,0m0-1.195-2.906,0a.858.858,0,0,0-.926.934q0,1.164,0,2.328a.878.878,0,0,0,.992.99h4.555l1.176,0a.851.851,0,0,0,.932-.925q.008-1.2,0-2.408a.846.846,0,0,0-.918-.918l-2.9,0Z" transform="translate(356.412 -35.14)" fill="#4e4e4e"/></g><g transform="translate(0)"><path d="M-577.835,36.335l2.651,0c0,.689,0,1.385,0,2.061q0,.49,0,.981c0,.321,0,.649,0,.966,0,.689,0,1.4,0,2.105-.685-.006-1.438-.009-2.345-.009l-1.555,0-1.367,0c0-1.954,0-3.957,0-6.107l2.615,0m0-1.195-2.894,0a.844.844,0,0,0-.915.92q-.005,3.333,0,6.666a.843.843,0,0,0,.923.909h.087c1.036,0,2.071,0,3.107,0q1.289,0,2.578.011h.011a.916.916,0,0,0,.953-.965c-.016-1.1,0-2.2,0-3.3s0-2.2,0-3.3a.858.858,0,0,0-.928-.932l-2.917,0Z" transform="translate(581.647 -35.14)" fill="#4e4e4e"/><path d="M-577.769,292.359h2.6q0,2.206,0,4.413h-5.267c0-1.481,0-2.964,0-4.413h2.664m2.871,4.411h0m-.27.27h0m-2.6-5.875h-2.862a.872.872,0,0,0-1,1q0,2.4,0,4.8c0,.688.319,1,1.014,1h5.672a.873.873,0,0,0,.97-.972q0-2.418,0-4.836a.879.879,0,0,0-.988-.993Z" transform="translate(581.628 -280.969)" fill="#4e4e4e"/></g></svg>