<svg xmlns="http://www.w3.org/2000/svg" width="18.495" height="19.728" viewBox="0 0 18.495 19.728"><path d="M-81.2,283.081l-5.243-3a.615.615,0,0,0-.612,0l-8.631,4.932a.616.616,0,0,0-.311.535v8.631a.616.616,0,0,0,.311.535l8.631,4.932a.614.614,0,0,0,.306.081.614.614,0,0,0,.306-.081l8.631-4.932a.616.616,0,0,0,.311-.535v-8.631a.616.616,0,0,0-.311-.535l-2.155-1.232m-6.782-2.455,7.388,4.222-1.917,1.1-7.388-4.222Zm3.388,6.769-7.618-4.353,1.07-.611,8.092,4.623V290.1l-1.233.617v-2.085a.616.616,0,0,0-.311-.535Zm-8.86-3.643,7.389,4.222-1.917,1.1-7.388-4.222Zm-2.543,2.158,7.4,4.227v7.211l-7.4-4.227Zm8.631,11.439v-7.211l1.85-1.057v1.932a.617.617,0,0,0,.293.525.615.615,0,0,0,.324.092.619.619,0,0,0,.276-.065l2.466-1.233a.617.617,0,0,0,.341-.552v-2.812l1.85-1.057v7.211Z" transform="translate(96 -280.004)" fill="#4e4e4e"/></svg>