<svg xmlns="http://www.w3.org/2000/svg" width="86.495" height="95.728" viewBox="0 0 86.495 95.728"><path d="M-26.8,294.935-51.322,280.4a2.787,2.787,0,0,0-2.86,0l-40.364,23.932a3.009,3.009,0,0,0-1.453,2.6v41.881a3.009,3.009,0,0,0,1.453,2.6l40.364,23.932a2.793,2.793,0,0,0,1.43.395,2.793,2.793,0,0,0,1.43-.395l40.364-23.932a3.009,3.009,0,0,0,1.453-2.6V306.927a3.009,3.009,0,0,0-1.453-2.6l-10.08-5.977m-31.715-11.912L-18.2,306.927l-8.964,5.316-34.552-20.486Zm15.846,32.847-35.624-21.12,5-2.965,37.842,22.433v11.373L-35.453,332V321.885a3.009,3.009,0,0,0-1.453-2.6Zm-41.434-17.677L-43.786,322.1l-8.967,5.316L-87.3,306.927Zm-11.893,10.47,34.6,20.513v34.992l-34.6-20.513Zm40.364,55.5V332.595l8.65-5.127v9.375a3.023,3.023,0,0,0,1.37,2.546,2.8,2.8,0,0,0,1.514.446,2.81,2.81,0,0,0,1.289-.314l11.533-5.983a3.008,3.008,0,0,0,1.594-2.678V317.212l8.65-5.127v34.989Z" transform="translate(96 -280.004)" fill="#4e4e4e"/></svg>