<svg xmlns="http://www.w3.org/2000/svg" width="68" height="99" viewBox="0 0 68 99">
  <g id="Drag_Drop_remove" data-name="Drag &amp; Drop remove" transform="translate(1)">
    <g id="Group_43" data-name="Group 43" transform="translate(-933.702 -207.472)">
      <path id="Path_50" data-name="Path 50" d="M987.088,307.123H971.474a8.427,8.427,0,0,1-8.418-8.418V276.374c.207,0,32.541.068,32.45,0V298.7A8.427,8.427,0,0,1,987.088,307.123Z" transform="translate(-13.054 -54.999)" fill="#b4b4b4"/>
      <path id="Path_51" data-name="Path 51" d="M1011.463,217.521h-4.036v-4.063a1.953,1.953,0,0,0-1.951-1.951H995.8a1.953,1.953,0,0,0-1.951,1.951v4.063h-4.035v-4.063a5.993,5.993,0,0,1,5.986-5.986h9.682a5.993,5.993,0,0,1,5.986,5.986Z" transform="translate(-34.409 0)" fill="#b4b4b4"/>
      <rect id="Rectangle_29" data-name="Rectangle 29" width="39.05" height="4.035" transform="translate(946.702 215.503)" fill="#b4b4b4"/>
    </g>
    <text id="Drag_Drop_Here_to_Remove" data-name="Drag &amp; Drop 
Here
to Remove" transform="translate(33 68)" fill="#8a8a8a" font-size="12" font-family="Roboto-Regular, Roboto"><tspan x="-33.357" y="0">Drag &amp; Drop </tspan><tspan x="-12.609" y="14">Here</tspan><tspan x="-28.365" y="28">to Remove</tspan></text>
  </g>
</svg>
