<svg xmlns="http://www.w3.org/2000/svg" width="64" height="72" viewBox="0 0 64 72">
  <g id="Drag_Drag_to_place" data-name="Drag Drag to place" transform="translate(0 1)">
    <g id="Group_77" data-name="Group 77" transform="translate(-747.593 -645.982)">
      <g id="arrow-down-sign-to-navigate" transform="translate(778.851 678.642) rotate(-90)">
        <path id="Path_21" data-name="Path 21" d="M16.33,18.617a2.28,2.28,0,0,1-1.617-.67L.67,3.9A2.287,2.287,0,0,1,3.9.67L16.33,13.1,28.755.67A2.287,2.287,0,1,1,31.989,3.9L17.946,17.948A2.28,2.28,0,0,1,16.33,18.617Z" transform="translate(0 0)" fill="#b4b4b4" stroke="#b4b4b4" stroke-width="2"/>
      </g>
      <g id="arrow-down-sign-to-navigate-2" data-name="arrow-down-sign-to-navigate" transform="translate(763.024 678.642) rotate(-90)">
        <path id="Path_21-2" data-name="Path 21" d="M13.577,15.479a1.9,1.9,0,0,1-1.344-.557L.557,3.246A1.9,1.9,0,0,1,3.246.557L13.577,10.889,23.908.557A1.9,1.9,0,0,1,26.6,3.247L14.922,14.923A1.9,1.9,0,0,1,13.577,15.479Z" transform="translate(2.752 -1.431)" fill="#b4b4b4" stroke="#b4b4b4" stroke-width="2"/>
      </g>
    </g>
    <text id="Drag_Drop_to_Place" data-name="Drag &amp; Drop
to Place" transform="translate(32 54)" fill="#8a8a8a" font-size="12" font-family="Roboto-Regular, Roboto"><tspan x="-31.872" y="0">Drag &amp; Drop</tspan><tspan x="-21.633" y="14">to Place</tspan></text>
  </g>
</svg>
